# xmcd CD database file
#
# Track frame offsets:
#	150
#	16660
#	28538
#	42246
#	56665
#	74140
#	91145
#	105084
#	120269
#	133579
#	151268
#	166469
#	179726
#	193248
#
# Disc length: 2800 seconds
#
# Revision: 0
# Processed by: cddbd v1.5.2PL0 Copyright (c) Steve Scherf et al.
# Submitted via: CDex 1.60beta1-cs1
#
DISCID=b40aee0e
DTITLE=Rionegro e Solimões (2006) - Do Jeito da Gente
DYEAR=2006
DGENRE=Sertanejo
TTITLE0=Vida de Cão
TTITLE1=Agito do Meu Povo
TTITLE2=La Bella Luna
TTITLE3=Eu Sem Você
TTITLE4=A Sua Maneira
TTITLE5=Cidade
TTITLE6=Fim de Semana
TTITLE7=No Mesmo Lugar
TTITLE8=Nem Com Reza
TTITLE9=Dois
TTITLE10=Tá Doendo Demais Essa Saudade
TTITLE11=Minha Serenata
TTITLE12=Ponto de Chegada
TTITLE13=Saudade Morena
EXTD=YEAR: 2006
EXTT0=
EXTT1=
EXTT2=
EXTT3=
EXTT4=
EXTT5=
EXTT6=
EXTT7=
EXTT8=
EXTT9=
EXTT10=
EXTT11=
EXTT12=
EXTT13=
PLAYORDER=
